<?xml version="1.0" encoding="UTF-8"?>
<svg id="Camada_2" data-name="Camada 2" xmlns="http://www.w3.org/2000/svg" viewBox="0 0 1330 474.2">
  <defs>
    <style>
      .cls-1 {
        fill: none;
        stroke: #ff4d43;
        stroke-miterlimit: 10;
        stroke-width: 30px;
      }

      .cls-2 {
        fill: #ff4d43;
      }
    </style>
  </defs>
  <g id="Camada_1-2" data-name="Camada 1">
    <g>
      <path class="cls-2" d="M264.3,231.66v55.94h-46.1v-63.88c0-15.31-11.24-21.17-21.5-21.17s-21.5,5.86-21.5,21.17v63.88h-46.1v-101.68h46.1v11.15c9.88-10.39,24.21-15.31,38.35-15.31,25.18,0,50.75,15.12,50.75,49.89Z"/>
      <path class="cls-2" d="M291.42,166.83v-30.43h46.1v30.43h-46.1Zm0,120.77v-101.68h46.1v101.68h-46.1Z"/>
      <path class="cls-2" d="M499.85,231.66v55.94h-46.1v-63.88c0-15.31-11.24-21.17-21.5-21.17s-21.5,5.86-21.5,21.17v63.88h-46.1v-101.68h46.1v11.15c9.88-10.39,24.21-15.31,38.35-15.31,25.18,0,50.75,15.12,50.75,49.89Z"/>
      <path class="cls-2" d="M595.94,136.4c48.43,0,79.42,15.31,79.42,46.11s-30.99,46.11-79.42,46.11h-21.31v58.97h-47.65V136.4h68.96Zm28.67,41.01c0-12.47-9.49-24-28.67-24h-21.31v58.21h21.31c19.18,0,28.67-11.53,28.67-24v-10.21Z"/>
      <path class="cls-2" d="M723.79,251.69l-15.88,35.91h-26.73l66.83-151.2h47.46l66.83,151.2h-51.33l-15.88-35.91h-71.29Zm35.64-80.7l-27.51,62.18h55.01l-27.51-62.18Z"/>
      <path class="cls-2" d="M1022.89,170.04h-49.98c0-16.06-8.91-21.36-24.79-21.36s-25.38,5.67-25.38,19.28c0,11.15,9.49,17.01,47.46,26.84,42.23,10.96,57.53,26.84,57.53,47.44,0,28.73-32.93,49.14-78.84,49.14s-76.9-18.33-78.84-41.39h51.92c0,17.58,11.62,25.33,28.86,25.33s28.48-6.43,28.48-19.28-10.65-18.33-48.62-28.73c-41.84-11.53-56.37-26.65-56.37-47.44,0-26.84,30.99-47.25,75.74-47.25s70.9,15.31,72.83,37.42Z"/>
      <path class="cls-2" d="M1196.07,170.04h-49.98c0-16.06-8.91-21.36-24.79-21.36s-25.38,5.67-25.38,19.28c0,11.15,9.49,17.01,47.46,26.84,42.23,10.96,57.53,26.84,57.53,47.44,0,28.73-32.93,49.14-78.84,49.14s-76.9-18.33-78.84-41.39h51.92c0,17.58,11.62,25.33,28.86,25.33s28.48-6.43,28.48-19.28-10.65-18.33-48.62-28.73c-41.84-11.53-56.37-26.65-56.37-47.44,0-26.84,30.99-47.25,75.74-47.25s70.9,15.31,72.83,37.42Z"/>
    </g>
    <path class="cls-1" d="M555.43,409H212c-108.8,0-197-88.2-197-197h0C15,103.2,103.2,15,212,15h906c108.8,0,197,88.2,197,197h0c0,108.8-88.2,197-197,197h-343.43"/>
    <g>
      <rect class="cls-2" x="599.8" y="393.94" width="130.41" height="30.12"/>
      <rect class="cls-2" x="599.8" y="393.94" width="130.41" height="30.12" transform="translate(1074 -256) rotate(90)"/>
    </g>
  </g>
</svg>